<?xml version="1.0" standalone="no"?>
<!DOCTYPE svg PUBLIC "-//W3C//DTD SVG 20010904//EN"
 "http://www.w3.org/TR/2001/REC-SVG-20010904/DTD/svg10.dtd">
<svg version="1.0" xmlns="http://www.w3.org/2000/svg"
 width="1278.000000pt" height="1280.000000pt" viewBox="0 0 1278.000000 1280.000000"
 preserveAspectRatio="xMidYMid meet">
<g transform="translate(0.000000,1280.000000) scale(0.100000,-0.100000)"
fill="#000000" stroke="none">
<path d="M6518 12663 l-128 -128 0 -350 0 -350 -132 -132 -132 -133 -50 0
c-66 0 -301 -24 -441 -45 -198 -30 -482 -92 -673 -148 l-83 -25 -169 81 -169
81 -117 315 c-65 174 -122 321 -128 328 -6 6 -84 45 -173 86 l-161 75 -119
-52 c-65 -29 -201 -94 -303 -145 -516 -259 -951 -552 -1387 -935 l-93 -81 0
-185 0 -185 245 -245 245 -245 0 -190 0 -190 -76 -85 c-206 -233 -400 -508
-579 -821 -43 -74 -78 -135 -80 -137 -5 -6 -341 -122 -354 -122 -8 0 -151 63
-318 140 -167 77 -309 140 -316 140 -11 0 -337 -116 -343 -122 -7 -8 -88 -221
-134 -353 -186 -539 -300 -1103 -341 -1684 l-11 -163 128 -129 129 -129 348 0
348 0 139 -132 139 -133 1 -55 c1 -71 24 -305 45 -445 32 -212 86 -459 149
-673 l24 -83 -81 -169 -81 -169 -315 -117 c-174 -64 -321 -122 -328 -128 -6
-6 -45 -84 -86 -173 l-74 -162 45 -108 c70 -163 260 -540 352 -698 216 -368
501 -758 757 -1038 l52 -57 183 0 183 0 245 244 245 244 190 7 190 6 109 -96
c234 -205 608 -464 872 -604 21 -11 45 -24 51 -29 14 -9 133 -334 133 -361 0
-9 -63 -153 -140 -320 -77 -166 -140 -307 -140 -313 0 -6 27 -86 61 -178 l61
-168 104 -41 c654 -261 1269 -398 1998 -447 l99 -6 128 128 129 129 0 348 0
348 132 137 132 137 110 7 c327 23 719 93 1044 187 l102 29 170 -80 169 -81
117 -316 c64 -174 122 -321 128 -328 6 -6 84 -45 173 -86 l161 -75 154 67
c598 263 1140 606 1630 1034 l117 102 0 188 1 187 -243 245 -244 246 -6 127
c-13 251 -15 238 51 313 219 247 424 535 597 839 43 74 79 137 81 139 7 8 336
121 353 121 9 0 153 -63 320 -140 166 -77 306 -140 311 -140 9 0 342 119 347
124 11 10 141 373 188 521 160 506 254 1020 291 1574 l6 103 -133 134 -134
134 -350 0 -350 0 -132 132 -133 132 0 50 c0 66 -24 301 -45 441 -32 212 -86
459 -149 673 l-24 84 79 166 c44 91 82 168 83 170 2 2 147 56 321 122 175 65
321 122 326 127 14 15 149 316 149 334 0 41 -220 492 -358 734 -231 405 -467
733 -797 1108 l-50 57 -190 0 -190 0 -240 -245 -239 -245 -189 0 -188 0 -122
104 c-258 220 -491 383 -802 560 -66 38 -121 70 -123 71 -6 5 -122 341 -122
354 0 8 63 151 141 319 98 214 139 312 135 328 -3 12 -33 92 -67 178 l-61 155
-106 42 c-183 71 -569 195 -757 242 -407 103 -811 167 -1220 192 l-100 6 -127
-128z m242 -2629 c620 -66 1228 -298 1735 -663 340 -244 677 -590 903 -928
348 -521 549 -1077 613 -1698 16 -154 16 -546 0 -700 -71 -688 -316 -1311
-730 -1860 -797 -1055 -2124 -1603 -3426 -1414 -800 116 -1505 468 -2075 1039
-600 598 -967 1366 -1055 2206 -20 193 -20 565 0 758 114 1088 702 2058 1620
2673 541 362 1183 571 1865 607 113 6 410 -5 550 -20z"/>
</g>
</svg>
