<?xml version="1.0" standalone="no"?>
<!DOCTYPE svg PUBLIC "-//W3C//DTD SVG 20010904//EN"
 "http://www.w3.org/TR/2001/REC-SVG-20010904/DTD/svg10.dtd">
<svg version="1.0" xmlns="http://www.w3.org/2000/svg"
 width="1280.000000pt" height="1280.000000pt" viewBox="0 0 1280.000000 1280.000000"
 preserveAspectRatio="xMidYMid meet">
<g transform="translate(0.000000,1280.000000) scale(0.100000,-0.100000)"
fill="#eeb121" stroke="none">
<path d="M6020 12790 c-1143 -74 -2200 -425 -3140 -1044 -1463 -963 -2462
-2470 -2775 -4186 -74 -408 -100 -701 -100 -1155 0 -655 68 -1157 240 -1765
547 -1936 2002 -3516 3891 -4228 948 -357 1968 -484 2979 -371 1817 202 3449
1166 4510 2664 958 1354 1352 3027 1099 4675 -314 2044 -1608 3816 -3465 4746
-728 364 -1452 569 -2293 650 -190 18 -752 26 -946 14z m600 -1596 c223 -40
428 -144 594 -303 229 -220 349 -486 363 -806 27 -631 -434 -1160 -1070 -1226
-351 -37 -729 109 -973 375 -423 460 -418 1166 11 1614 108 113 188 172 330
242 236 117 478 150 745 104z m22 -2804 c138 -29 259 -80 386 -163 285 -189
437 -430 472 -750 15 -136 6 -4946 -10 -5027 -35 -183 -129 -365 -262 -506
-243 -257 -573 -380 -924 -345 -315 31 -543 129 -724 311 -109 109 -162 195
-210 338 -63 189 -61 71 -58 2792 l3 2475 22 80 c120 440 429 715 898 800 112
21 291 18 407 -5z"/>
</g>
</svg>
