<?xml version="1.0" standalone="no"?>
<!DOCTYPE svg PUBLIC "-//W3C//DTD SVG 20010904//EN"
 "http://www.w3.org/TR/2001/REC-SVG-20010904/DTD/svg10.dtd">
<svg version="1.0" xmlns="http://www.w3.org/2000/svg"
 width="1280.000000pt" height="640.000000pt" viewBox="0 0 1280.000000 640.000000"
 preserveAspectRatio="xMidYMid meet">
<g transform="translate(0.000000,640.000000) scale(0.100000,-0.100000)"
fill="#000000" stroke="none">
<path d="M7430 6394 c-660 -44 -1039 -95 -1435 -193 -88 -22 -324 -87 -525
-144 -611 -175 -750 -208 -1765 -417 -804 -166 -918 -184 -1150 -183 -163 0
-199 5 -445 62 -274 64 -964 108 -1420 90 -284 -11 -346 -26 -423 -103 -96
-96 -120 -246 -137 -861 -24 -893 -31 -1029 -59 -1225 -22 -154 -43 -807 -62
-1880 -12 -708 -8 -1197 11 -1295 21 -108 78 -182 157 -205 113 -31 1050 -39
1283 -11 312 39 418 89 489 229 76 152 107 368 166 1167 20 264 37 480 38 481
1 0 45 -3 97 -8 118 -10 238 -44 372 -104 129 -58 241 -95 438 -144 577 -144
1432 -249 2045 -250 305 -1 589 -16 660 -35 33 -8 143 -56 245 -105 251 -121
302 -135 505 -135 172 0 239 8 525 61 495 93 699 182 776 339 21 44 28 77 34
165 5 60 14 122 22 137 19 40 75 75 253 156 253 116 378 200 462 312 87 114
113 204 113 386 0 162 7 174 142 242 123 63 217 135 291 223 154 182 234 400
225 613 -6 126 -29 173 -145 287 -241 236 -557 440 -1025 660 -165 78 -167 79
-130 86 93 17 736 52 957 53 260 0 265 -1 545 -75 155 -41 470 -104 665 -134
212 -32 243 -35 425 -46 173 -10 306 -33 490 -85 180 -51 326 -74 556 -86 256
-14 508 0 601 31 126 43 329 186 403 283 116 155 129 308 41 502 -51 111 -119
159 -301 210 -161 45 -341 106 -435 147 -191 84 -315 117 -556 147 -187 24
-265 47 -350 102 -145 95 -342 171 -604 234 -270 65 -464 93 -865 125 -367 30
-593 54 -961 104 -398 55 -553 73 -734 86 -128 9 -393 11 -505 4z"/>
</g>
</svg>
