<?xml version="1.0" standalone="no"?>
<!DOCTYPE svg PUBLIC "-//W3C//DTD SVG 20010904//EN"
 "http://www.w3.org/TR/2001/REC-SVG-20010904/DTD/svg10.dtd">
<svg version="1.0" xmlns="http://www.w3.org/2000/svg"
 width="1280.000000pt" height="842.000000pt" viewBox="0 0 1280.000000 842.000000"
 preserveAspectRatio="xMidYMid meet">
<g transform="translate(0.000000,842.000000) scale(0.100000,-0.100000)"
fill="#000000" stroke="none">
<path d="M6680 8413 c-232 -17 -625 -89 -810 -148 -58 -18 -175 -52 -260 -75
-179 -48 -348 -103 -402 -131 -26 -13 -100 -27 -239 -44 -1193 -148 -2128
-360 -2462 -556 -177 -105 -892 -925 -1317 -1509 -376 -518 -696 -1089 -829
-1480 -29 -84 -80 -184 -176 -345 -152 -254 -179 -321 -179 -450 -1 -114 21
-164 113 -255 98 -97 196 -144 353 -171 144 -25 326 -22 418 6 84 26 207 90
290 153 80 60 258 233 357 347 l61 70 -19 -95 c-19 -93 -79 -433 -79 -449 0
-4 -19 -21 -42 -38 -121 -88 -327 -298 -354 -361 -41 -98 -74 -207 -83 -276
-33 -237 85 -470 326 -645 70 -50 72 -53 65 -84 -12 -54 -8 -318 5 -363 45
-146 187 -237 392 -250 163 -11 411 73 549 186 35 29 65 50 66 48 2 -1 9 -40
15 -85 26 -180 81 -272 196 -325 43 -20 66 -23 160 -22 l110 0 95 48 c52 27
108 58 124 69 23 16 31 18 34 8 11 -32 78 -92 129 -117 42 -20 77 -27 147 -31
107 -7 164 7 296 69 l85 40 230 -16 c127 -9 356 -21 509 -26 518 -20 887 -66
1266 -160 165 -41 223 -58 580 -175 882 -288 1660 -421 2340 -401 234 6 321
14 600 52 237 32 372 59 485 96 220 74 339 151 538 350 82 81 153 148 158 148
5 0 9 9 9 20 0 11 3 20 6 20 3 0 65 -24 137 -54 633 -260 1130 -565 1519 -933
75 -71 79 -73 128 -73 33 0 50 4 50 13 0 6 16 22 36 35 41 27 110 129 149 222
110 261 180 610 227 1140 17 189 17 931 0 1135 -21 242 -51 508 -78 690 -36
235 -38 266 -20 465 13 142 13 177 3 185 -7 6 -170 145 -363 310 -1435 1234
-3115 2583 -4853 3897 l-433 328 -157 -2 c-86 -1 -176 -3 -201 -5z m-792
-3750 c-22 -261 -113 -586 -293 -1055 l-37 -96 -126 -9 c-148 -9 -737 -9 -776
1 -20 5 -26 11 -22 24 11 39 37 241 42 331 10 187 12 198 42 206 40 10 253
100 346 147 293 147 532 319 646 467 51 65 59 71 100 76 25 4 52 7 60 9 8 1
17 1 20 0 3 -1 2 -47 -2 -101z"/>
</g>
</svg>
